<svg xmlns="http://www.w3.org/2000/svg" width="900" height="320" viewBox="0 0 900 320">
<rect width="100%" height="100%" rx="20" fill="#091427"/>
<g opacity=".18" stroke="#ffffff">
<line x1="40" y1="40.0" x2="860" y2="40.0"/><line x1="40" y1="100.0" x2="860" y2="100.0"/><line x1="40" y1="160.0" x2="860" y2="160.0"/><line x1="40" y1="220.0" x2="860" y2="220.0"/><line x1="40" y1="280.0" x2="860" y2="280.0"/>
<line x1="40.0" y1="40" x2="40.0" y2="280"/><line x1="142.5" y1="40" x2="142.5" y2="280"/><line x1="245.0" y1="40" x2="245.0" y2="280"/><line x1="347.5" y1="40" x2="347.5" y2="280"/><line x1="450.0" y1="40" x2="450.0" y2="280"/><line x1="552.5" y1="40" x2="552.5" y2="280"/><line x1="655.0" y1="40" x2="655.0" y2="280"/><line x1="757.5" y1="40" x2="757.5" y2="280"/><line x1="860.0" y1="40" x2="860.0" y2="280"/>
</g>
<text x="40" y="28" fill="#eef4ff" font-family="Inter, Arial, sans-serif" font-size="18" font-weight="700">Alert Count</text>
<polyline fill="#88ffc9" opacity=".12" points="40,280 40.0,280.0 91.2,280.0 142.5,253.3 193.8,253.3 245.0,226.7 296.2,173.3 347.5,93.3 398.8,40.0 450.0,66.7 501.2,120.0 552.5,173.3 603.8,200.0 655.0,226.7 706.2,253.3 757.5,253.3 808.8,280.0 860.0,280.0 860,280"/>
<polyline fill="none" stroke="#88ffc9" stroke-width="4" stroke-linecap="round" stroke-linejoin="round" points="40.0,280.0 91.2,280.0 142.5,253.3 193.8,253.3 245.0,226.7 296.2,173.3 347.5,93.3 398.8,40.0 450.0,66.7 501.2,120.0 552.5,173.3 603.8,200.0 655.0,226.7 706.2,253.3 757.5,253.3 808.8,280.0 860.0,280.0"/>
<circle cx="40.0" cy="280.0" r="4.5" fill="#88ffc9"/><circle cx="91.2" cy="280.0" r="4.5" fill="#88ffc9"/><circle cx="142.5" cy="253.3" r="4.5" fill="#88ffc9"/><circle cx="193.8" cy="253.3" r="4.5" fill="#88ffc9"/><circle cx="245.0" cy="226.7" r="4.5" fill="#88ffc9"/><circle cx="296.2" cy="173.3" r="4.5" fill="#88ffc9"/><circle cx="347.5" cy="93.3" r="4.5" fill="#88ffc9"/><circle cx="398.8" cy="40.0" r="4.5" fill="#88ffc9"/><circle cx="450.0" cy="66.7" r="4.5" fill="#88ffc9"/><circle cx="501.2" cy="120.0" r="4.5" fill="#88ffc9"/><circle cx="552.5" cy="173.3" r="4.5" fill="#88ffc9"/><circle cx="603.8" cy="200.0" r="4.5" fill="#88ffc9"/><circle cx="655.0" cy="226.7" r="4.5" fill="#88ffc9"/><circle cx="706.2" cy="253.3" r="4.5" fill="#88ffc9"/><circle cx="757.5" cy="253.3" r="4.5" fill="#88ffc9"/><circle cx="808.8" cy="280.0" r="4.5" fill="#88ffc9"/><circle cx="860.0" cy="280.0" r="4.5" fill="#88ffc9"/>
</svg>