<svg xmlns="http://www.w3.org/2000/svg" width="900" height="320" viewBox="0 0 900 320">
<rect width="100%" height="100%" rx="20" fill="#091427"/>
<g opacity=".18" stroke="#ffffff">
<line x1="40" y1="40.0" x2="860" y2="40.0"/><line x1="40" y1="100.0" x2="860" y2="100.0"/><line x1="40" y1="160.0" x2="860" y2="160.0"/><line x1="40" y1="220.0" x2="860" y2="220.0"/><line x1="40" y1="280.0" x2="860" y2="280.0"/>
<line x1="40.0" y1="40" x2="40.0" y2="280"/><line x1="142.5" y1="40" x2="142.5" y2="280"/><line x1="245.0" y1="40" x2="245.0" y2="280"/><line x1="347.5" y1="40" x2="347.5" y2="280"/><line x1="450.0" y1="40" x2="450.0" y2="280"/><line x1="552.5" y1="40" x2="552.5" y2="280"/><line x1="655.0" y1="40" x2="655.0" y2="280"/><line x1="757.5" y1="40" x2="757.5" y2="280"/><line x1="860.0" y1="40" x2="860.0" y2="280"/>
</g>
<text x="40" y="28" fill="#eef4ff" font-family="Inter, Arial, sans-serif" font-size="18" font-weight="700">CPU Usage %</text>
<polyline fill="#69d7ff" opacity=".12" points="40,280 40.0,211.4 91.2,196.2 142.5,188.6 193.8,173.3 245.0,181.0 296.2,165.7 347.5,150.5 398.8,135.2 450.0,112.4 501.2,59.0 552.5,47.6 603.8,40.0 655.0,70.5 706.2,104.8 757.5,135.2 808.8,158.1 860.0,173.3 860,280"/>
<polyline fill="none" stroke="#69d7ff" stroke-width="4" stroke-linecap="round" stroke-linejoin="round" points="40.0,211.4 91.2,196.2 142.5,188.6 193.8,173.3 245.0,181.0 296.2,165.7 347.5,150.5 398.8,135.2 450.0,112.4 501.2,59.0 552.5,47.6 603.8,40.0 655.0,70.5 706.2,104.8 757.5,135.2 808.8,158.1 860.0,173.3"/>
<circle cx="40.0" cy="211.4" r="4.5" fill="#69d7ff"/><circle cx="91.2" cy="196.2" r="4.5" fill="#69d7ff"/><circle cx="142.5" cy="188.6" r="4.5" fill="#69d7ff"/><circle cx="193.8" cy="173.3" r="4.5" fill="#69d7ff"/><circle cx="245.0" cy="181.0" r="4.5" fill="#69d7ff"/><circle cx="296.2" cy="165.7" r="4.5" fill="#69d7ff"/><circle cx="347.5" cy="150.5" r="4.5" fill="#69d7ff"/><circle cx="398.8" cy="135.2" r="4.5" fill="#69d7ff"/><circle cx="450.0" cy="112.4" r="4.5" fill="#69d7ff"/><circle cx="501.2" cy="59.0" r="4.5" fill="#69d7ff"/><circle cx="552.5" cy="47.6" r="4.5" fill="#69d7ff"/><circle cx="603.8" cy="40.0" r="4.5" fill="#69d7ff"/><circle cx="655.0" cy="70.5" r="4.5" fill="#69d7ff"/><circle cx="706.2" cy="104.8" r="4.5" fill="#69d7ff"/><circle cx="757.5" cy="135.2" r="4.5" fill="#69d7ff"/><circle cx="808.8" cy="158.1" r="4.5" fill="#69d7ff"/><circle cx="860.0" cy="173.3" r="4.5" fill="#69d7ff"/>
</svg>