<svg xmlns="http://www.w3.org/2000/svg" width="900" height="320" viewBox="0 0 900 320">
<rect width="100%" height="100%" rx="20" fill="#091427"/>
<g opacity=".18" stroke="#ffffff">
<line x1="40" y1="40.0" x2="860" y2="40.0"/><line x1="40" y1="100.0" x2="860" y2="100.0"/><line x1="40" y1="160.0" x2="860" y2="160.0"/><line x1="40" y1="220.0" x2="860" y2="220.0"/><line x1="40" y1="280.0" x2="860" y2="280.0"/>
<line x1="40.0" y1="40" x2="40.0" y2="280"/><line x1="142.5" y1="40" x2="142.5" y2="280"/><line x1="245.0" y1="40" x2="245.0" y2="280"/><line x1="347.5" y1="40" x2="347.5" y2="280"/><line x1="450.0" y1="40" x2="450.0" y2="280"/><line x1="552.5" y1="40" x2="552.5" y2="280"/><line x1="655.0" y1="40" x2="655.0" y2="280"/><line x1="757.5" y1="40" x2="757.5" y2="280"/><line x1="860.0" y1="40" x2="860.0" y2="280"/>
</g>
<text x="40" y="28" fill="#eef4ff" font-family="Inter, Arial, sans-serif" font-size="18" font-weight="700">Packets/s</text>
<polyline fill="#ffd580" opacity=".12" points="40,280 40.0,241.3 91.2,233.5 142.5,229.7 193.8,221.9 245.0,218.1 296.2,183.2 347.5,109.7 398.8,40.0 450.0,55.5 501.2,71.0 552.5,163.9 603.8,194.8 655.0,210.3 706.2,218.1 757.5,221.9 808.8,229.7 860.0,233.5 860,280"/>
<polyline fill="none" stroke="#ffd580" stroke-width="4" stroke-linecap="round" stroke-linejoin="round" points="40.0,241.3 91.2,233.5 142.5,229.7 193.8,221.9 245.0,218.1 296.2,183.2 347.5,109.7 398.8,40.0 450.0,55.5 501.2,71.0 552.5,163.9 603.8,194.8 655.0,210.3 706.2,218.1 757.5,221.9 808.8,229.7 860.0,233.5"/>
<circle cx="40.0" cy="241.3" r="4.5" fill="#ffd580"/><circle cx="91.2" cy="233.5" r="4.5" fill="#ffd580"/><circle cx="142.5" cy="229.7" r="4.5" fill="#ffd580"/><circle cx="193.8" cy="221.9" r="4.5" fill="#ffd580"/><circle cx="245.0" cy="218.1" r="4.5" fill="#ffd580"/><circle cx="296.2" cy="183.2" r="4.5" fill="#ffd580"/><circle cx="347.5" cy="109.7" r="4.5" fill="#ffd580"/><circle cx="398.8" cy="40.0" r="4.5" fill="#ffd580"/><circle cx="450.0" cy="55.5" r="4.5" fill="#ffd580"/><circle cx="501.2" cy="71.0" r="4.5" fill="#ffd580"/><circle cx="552.5" cy="163.9" r="4.5" fill="#ffd580"/><circle cx="603.8" cy="194.8" r="4.5" fill="#ffd580"/><circle cx="655.0" cy="210.3" r="4.5" fill="#ffd580"/><circle cx="706.2" cy="218.1" r="4.5" fill="#ffd580"/><circle cx="757.5" cy="221.9" r="4.5" fill="#ffd580"/><circle cx="808.8" cy="229.7" r="4.5" fill="#ffd580"/><circle cx="860.0" cy="233.5" r="4.5" fill="#ffd580"/>
</svg>